<mxfile host="app.diagrams.net" modified="2024-06-17T13:27:12.931Z" agent="Mozilla/5.0 (Windows NT 10.0; Win64; x64) AppleWebKit/537.36 (KHTML, like Gecko) Chrome/125.0.0.0 Safari/537.36" etag="eRYEviQ7fIirBQXX3VA1" version="24.5.4" type="device">
  <diagram name="Seite-1" id="7C3CfVNro1nM4JZWpLrE">
    <mxGraphModel dx="1088" dy="482" grid="1" gridSize="10" guides="1" tooltips="1" connect="1" arrows="1" fold="1" page="1" pageScale="1" pageWidth="827" pageHeight="1169" math="0" shadow="0">
      <root>
        <mxCell id="0" />
        <mxCell id="1" parent="0" />
        <mxCell id="dkAxxOleNoa88Y_1nmBE-5" value="" style="edgeStyle=orthogonalEdgeStyle;rounded=0;orthogonalLoop=1;jettySize=auto;html=1;shape=link;" edge="1" parent="1" source="dkAxxOleNoa88Y_1nmBE-1" target="dkAxxOleNoa88Y_1nmBE-4">
          <mxGeometry relative="1" as="geometry" />
        </mxCell>
        <mxCell id="dkAxxOleNoa88Y_1nmBE-12" value="m" style="edgeLabel;html=1;align=center;verticalAlign=middle;resizable=0;points=[];" vertex="1" connectable="0" parent="dkAxxOleNoa88Y_1nmBE-5">
          <mxGeometry x="-0.2159" y="3" relative="1" as="geometry">
            <mxPoint x="-9" y="-7" as="offset" />
          </mxGeometry>
        </mxCell>
        <mxCell id="dkAxxOleNoa88Y_1nmBE-13" value="m" style="edgeLabel;html=1;align=center;verticalAlign=middle;resizable=0;points=[];" vertex="1" connectable="0" parent="dkAxxOleNoa88Y_1nmBE-5">
          <mxGeometry x="0.7484" y="1" relative="1" as="geometry">
            <mxPoint x="9" as="offset" />
          </mxGeometry>
        </mxCell>
        <mxCell id="dkAxxOleNoa88Y_1nmBE-6" style="edgeStyle=orthogonalEdgeStyle;rounded=0;orthogonalLoop=1;jettySize=auto;html=1;shape=link;" edge="1" parent="1" source="dkAxxOleNoa88Y_1nmBE-1" target="dkAxxOleNoa88Y_1nmBE-2">
          <mxGeometry relative="1" as="geometry" />
        </mxCell>
        <mxCell id="dkAxxOleNoa88Y_1nmBE-10" value="m" style="edgeLabel;html=1;align=center;verticalAlign=middle;resizable=0;points=[];" vertex="1" connectable="0" parent="dkAxxOleNoa88Y_1nmBE-6">
          <mxGeometry x="0.7038" y="1" relative="1" as="geometry">
            <mxPoint x="-15" as="offset" />
          </mxGeometry>
        </mxCell>
        <mxCell id="dkAxxOleNoa88Y_1nmBE-14" value="m" style="edgeLabel;html=1;align=center;verticalAlign=middle;resizable=0;points=[];" vertex="1" connectable="0" parent="dkAxxOleNoa88Y_1nmBE-6">
          <mxGeometry x="-0.394" y="1" relative="1" as="geometry">
            <mxPoint x="-12" y="-11" as="offset" />
          </mxGeometry>
        </mxCell>
        <mxCell id="dkAxxOleNoa88Y_1nmBE-1" value="Openairs" style="whiteSpace=wrap;html=1;" vertex="1" parent="1">
          <mxGeometry x="380" y="130" width="120" height="60" as="geometry" />
        </mxCell>
        <mxCell id="dkAxxOleNoa88Y_1nmBE-7" value="" style="edgeStyle=orthogonalEdgeStyle;rounded=0;orthogonalLoop=1;jettySize=auto;html=1;shape=link;" edge="1" parent="1" source="dkAxxOleNoa88Y_1nmBE-2" target="dkAxxOleNoa88Y_1nmBE-3">
          <mxGeometry relative="1" as="geometry" />
        </mxCell>
        <mxCell id="dkAxxOleNoa88Y_1nmBE-8" value="m" style="edgeLabel;html=1;align=center;verticalAlign=middle;resizable=0;points=[];" vertex="1" connectable="0" parent="dkAxxOleNoa88Y_1nmBE-7">
          <mxGeometry x="0.4125" y="-2" relative="1" as="geometry">
            <mxPoint x="-12" as="offset" />
          </mxGeometry>
        </mxCell>
        <mxCell id="dkAxxOleNoa88Y_1nmBE-9" value="1" style="edgeLabel;html=1;align=center;verticalAlign=middle;resizable=0;points=[];" vertex="1" connectable="0" parent="dkAxxOleNoa88Y_1nmBE-7">
          <mxGeometry x="-0.6239" relative="1" as="geometry">
            <mxPoint x="-14" as="offset" />
          </mxGeometry>
        </mxCell>
        <mxCell id="dkAxxOleNoa88Y_1nmBE-2" value="Acts" style="whiteSpace=wrap;html=1;" vertex="1" parent="1">
          <mxGeometry x="294" y="250" width="120" height="60" as="geometry" />
        </mxCell>
        <mxCell id="dkAxxOleNoa88Y_1nmBE-3" value="Songs" style="whiteSpace=wrap;html=1;" vertex="1" parent="1">
          <mxGeometry x="294" y="380" width="120" height="60" as="geometry" />
        </mxCell>
        <mxCell id="dkAxxOleNoa88Y_1nmBE-4" value="Sponsors" style="whiteSpace=wrap;html=1;" vertex="1" parent="1">
          <mxGeometry x="470" y="250" width="120" height="60" as="geometry" />
        </mxCell>
      </root>
    </mxGraphModel>
  </diagram>
</mxfile>
